<svg xmlns="http://www.w3.org/2000/svg" viewBox="0 0 494.93 361.57"><defs><style>.cls-1{fill:#1d1d1b;fill-rule:evenodd;}</style></defs><g id="Layer_2" data-name="Layer 2"><g id="Livello_1" data-name="Livello 1"><path class="cls-1" d="M488.19,0h-.13a6.86,6.86,0,0,0-6.76,4.91A505.42,505.42,0,0,1,461.44,60.1q-4.79,11.19-10.07,22.09A7.08,7.08,0,0,1,454,91a514.73,514.73,0,0,1-23.27,46.08,6.83,6.83,0,0,1-6.92,3.4c-1.7-.25-3.4-.53-5.1-.79q-11.4,17.33-24.16,33.65-8.16,10.46-16.86,20.44l2.61.64A7,7,0,0,1,384,205.65a516,516,0,0,1-37.53,41.75,515.37,515.37,0,0,1-49.84,43.65,511.32,511.32,0,0,1-49.28,33.43,6.75,6.75,0,0,1-6.94,0,509.94,509.94,0,0,1-49.27-33.43,513,513,0,0,1-49.84-43.65,519.06,519.06,0,0,1-44.48-50.55,517.37,517.37,0,0,1-37.41-55.71A514.71,514.71,0,0,1,33.82,91a7,7,0,0,1,5.6-9.85l3.47-.37Q38,70.57,33.49,60.1A505.37,505.37,0,0,1,13.64,4.92,6.88,6.88,0,0,0,6.87,0H6.74A6.89,6.89,0,0,0,.1,8,504.72,504.72,0,0,0,12.16,61.3a505.6,505.6,0,0,0,21.33,60.26A505.58,505.58,0,0,0,63,179.87a509.36,509.36,0,0,0,37.42,54.93,509.17,509.17,0,0,0,44.48,49.82,509.42,509.42,0,0,0,49.83,43,507.53,507.53,0,0,0,49.28,33,6.84,6.84,0,0,0,6.94,0,507.38,507.38,0,0,0,49.27-33,510.72,510.72,0,0,0,49.84-43,509.21,509.21,0,0,0,44.47-49.82,509.36,509.36,0,0,0,37.42-54.93,505.58,505.58,0,0,0,29.5-58.31A505.6,505.6,0,0,0,482.77,61.3,502.24,502.24,0,0,0,494.83,8,6.89,6.89,0,0,0,488.19,0Z"/><path class="cls-1" d="M100.41,173.34a511.61,511.61,0,0,0,44.48,49.83,511.86,511.86,0,0,0,49.83,43,507.53,507.53,0,0,0,49.28,33,6.84,6.84,0,0,0,6.94,0,507.38,507.38,0,0,0,49.27-33,512,512,0,0,0,49.84-43q14.38-14.13,27.61-29.39-15.8-3.87-31.18-8.73a499.38,499.38,0,0,1-49.84-18.69,502.39,502.39,0,0,1-52.75-26.85,509.66,509.66,0,0,1-43.17-28.31,7,7,0,0,1,1.18-12q19.75-9.19,38.57-20a6.85,6.85,0,0,1,6.84,0A501.34,501.34,0,0,0,296.64,104a496.93,496.93,0,0,0,49.84,18.69q21.82,6.89,44.46,11.8,13.74,3,27.74,5.18,6.88-10.47,13.26-21.27,10.43-17.67,19.43-36.23a6.72,6.72,0,0,0-3-1q-10-1-20-2.36-18.94-2.61-37.43-6.62-22.62-4.9-44.46-11.8a499.38,499.38,0,0,1-49.84-18.69c-16.94-7.4-88.56-7.4-105.49,0a501.24,501.24,0,0,1-49.84,18.69q-16.67,5.25-33.8,9.37A7,7,0,0,0,103.77,81a517.88,517.88,0,0,0,37.54,41.74,513,513,0,0,0,49.84,43.65,507.94,507.94,0,0,0,52.74,35.49q20.42,12,42,22a7,7,0,0,1,1.18,12q-19.2,14-39.7,26.26a6.75,6.75,0,0,1-6.94,0,508.23,508.23,0,0,1-49.27-33.44,510.31,510.31,0,0,1-49.84-43.65,516.61,516.61,0,0,1-44.48-50.54,520.21,520.21,0,0,1-35.1-51.76A6.84,6.84,0,0,0,55,79.39c-4,.52-8,1-12.08,1.39q9.28,19.27,20.1,37.64A509.23,509.23,0,0,0,100.41,173.34Z"/></g></g></svg>